HIERARCHY
ROOT hip
{
  OFFSET 0 0 0
  CHANNELS 6 Xposition Yposition Zposition Zrotation Yrotation Xrotation
  JOINT abdomen
  {
    OFFSET 0 20.6881 -0.73152
    CHANNELS 3 Zrotation Xrotation Yrotation
    JOINT chest
    {
      OFFSET 0 11.7043 -0.48768
      CHANNELS 3 Zrotation Xrotation Yrotation
      JOINT neck
      {
        OFFSET 0 22.1894 -2.19456
        CHANNELS 3 Zrotation Xrotation Yrotation
        JOINT head
        {
          OFFSET -0.24384 7.07133 1.2192
          CHANNELS 3 Zrotation Xrotation Yrotation
          JOINT leftEye
          {
            OFFSET 4.14528 8.04674 8.04672
            CHANNELS 3 Zrotation Xrotation Yrotation
            End Site
            {
              OFFSET 1 0 0
            }
          }
          JOINT rightEye
          {
            OFFSET -3.6576 8.04674 8.04672
            CHANNELS 3 Zrotation Xrotation Yrotation
            End Site
            {
              OFFSET 1 0 0
            }
          }
        }
      }
      JOINT rCollar
      {
        OFFSET -2.68224 19.2634 -4.8768
        CHANNELS 3 Zrotation Xrotation Yrotation
        JOINT rShldr
        {
          OFFSET -8.77824 -1.95073 1.46304
          CHANNELS 3 Zrotation Xrotation Yrotation
          JOINT rForeArm
          {
            OFFSET -28.1742 -1.7115 0.48768
            CHANNELS 3 Zrotation Xrotation Yrotation
            JOINT rHand
            {
              OFFSET -22.5879 0.773209 7.07136
              CHANNELS 3 Zrotation Xrotation Yrotation
              JOINT rThumb1
              {
                OFFSET -1.2192 -0.487915 3.41376
                CHANNELS 3 Zrotation Xrotation Yrotation
                JOINT rThumb2
                {
                  OFFSET -3.37035 -0.52449 3.41376
                  CHANNELS 3 Zrotation Xrotation Yrotation
                  End Site
                  {
                    OFFSET -1.78271 -1.18214 1.43049
                  }
                }
              }
              JOINT rIndex1
              {
                OFFSET -7.75947 0.938293 5.60832
                CHANNELS 3 Zrotation Xrotation Yrotation
                JOINT rIndex2
                {
                  OFFSET -2.54057 -0.884171 1.56538
                  CHANNELS 3 Zrotation Xrotation Yrotation
                  End Site
                  {
                    OFFSET -1.62519 -0.234802 1.16502
                  }
                }
              }
              JOINT rMid1
              {
                OFFSET -8.24714 1.18213 3.41376
                CHANNELS 3 Zrotation Xrotation Yrotation
                JOINT rMid2
                {
                  OFFSET -3.10165 -0.590103 1.0647
                  CHANNELS 3 Zrotation Xrotation Yrotation
                  End Site
                  {
                    OFFSET -2.48547 -0.328903 0.83742
                  }
                }
              }
              JOINT rRing1
              {
                OFFSET -8.82822 0.546677 1.51678
                CHANNELS 3 Zrotation Xrotation Yrotation
                JOINT rRing2
                {
                  OFFSET -2.60934 -0.819778 -0.0198488
                  CHANNELS 3 Zrotation Xrotation Yrotation
                  End Site
                  {
                    OFFSET -2.33842 -0.294052 0.168128
                  }
                }
              }
              JOINT rPinky1
              {
                OFFSET -8.27202 -0.0477905 -0.4584
                CHANNELS 3 Zrotation Xrotation Yrotation
                JOINT rPinky2
                {
                  OFFSET -1.82734 -0.647385 -0.700984
                  CHANNELS 3 Zrotation Xrotation Yrotation
                  End Site
                  {
                    OFFSET -1.69225 -0.51767 -0.607171
                  }
                }
              }
            }
          }
        }
      }
      JOINT lCollar
      {
        OFFSET 2.68224 19.2634 -4.8768
        CHANNELS 3 Zrotation Xrotation Yrotation
        JOINT lShldr
        {
          OFFSET 8.77824 -1.95073 1.46304
          CHANNELS 3 Zrotation Xrotation Yrotation
          JOINT lForeArm
          {
            OFFSET 28.1742 -1.7115 0.48768
            CHANNELS 3 Zrotation Xrotation Yrotation
            JOINT lHand
            {
              OFFSET 22.5879 0.773209 7.07136
              CHANNELS 3 Zrotation Xrotation Yrotation
              JOINT lThumb1
              {
                OFFSET 1.2192 -0.487915 3.41376
                CHANNELS 3 Zrotation Xrotation Yrotation
                JOINT lThumb2
                {
                  OFFSET 3.37035 -0.52449 3.41376
                  CHANNELS 3 Zrotation Xrotation Yrotation
                  End Site
                  {
                    OFFSET 1.78271 -1.18214 1.43049
                  }
                }
              }
              JOINT lIndex1
              {
                OFFSET 7.75947 0.938293 5.60832
                CHANNELS 3 Zrotation Xrotation Yrotation
                JOINT lIndex2
                {
                  OFFSET 2.54057 -0.884171 1.56538
                  CHANNELS 3 Zrotation Xrotation Yrotation
                  End Site
                  {
                    OFFSET 1.62519 -0.234802 1.16502
                  }
                }
              }
              JOINT lMid1
              {
                OFFSET 8.24714 1.18213 3.41376
                CHANNELS 3 Zrotation Xrotation Yrotation
                JOINT lMid2
                {
                  OFFSET 3.10165 -0.590103 1.0647
                  CHANNELS 3 Zrotation Xrotation Yrotation
                  End Site
                  {
                    OFFSET 2.48547 -0.328903 0.83742
                  }
                }
              }
              JOINT lRing1
              {
                OFFSET 8.82822 0.546677 1.51678
                CHANNELS 3 Zrotation Xrotation Yrotation
                JOINT lRing2
                {
                  OFFSET 2.60934 -0.819778 -0.0198488
                  CHANNELS 3 Zrotation Xrotation Yrotation
                  End Site
                  {
                    OFFSET 2.33842 -0.294052 0.168128
                  }
                }
              }
              JOINT lPinky1
              {
                OFFSET 8.27202 -0.0477905 -0.4584
                CHANNELS 3 Zrotation Xrotation Yrotation
                JOINT lPinky2
                {
                  OFFSET 1.82734 -0.647385 -0.700984
                  CHANNELS 3 Zrotation Xrotation Yrotation
                  End Site
                  {
                    OFFSET 1.69225 -0.51767 -0.607171
                  }
                }
              }
            }
          }
        }
      }
    }
  }
  JOINT rButtock
  {
    OFFSET -8.77824 4.35084 1.2192
    CHANNELS 3 Zrotation Xrotation Yrotation
    JOINT rThigh
    {
      OFFSET 0 -1.70687 -2.19456
      CHANNELS 3 Zrotation Xrotation Yrotation
      JOINT rShin
      {
        OFFSET 0 -36.8199 0.73152
        CHANNELS 3 Zrotation Xrotation Yrotation
        JOINT rFoot
        {
          OFFSET 0.73152 -45.1104 -5.12064
          CHANNELS 3 Zrotation Xrotation Yrotation
          End Site
          {
            OFFSET -1.1221 -3.69964 12.103
          }
        }
      }
    }
  }
  JOINT lButtock
  {
    OFFSET 8.77824 4.35084 1.2192
    CHANNELS 3 Zrotation Xrotation Yrotation
    JOINT lThigh
    {
      OFFSET 0 -1.70687 -2.19456
      CHANNELS 3 Zrotation Xrotation Yrotation
      JOINT lShin
      {
        OFFSET 0 -36.8199 0.73152
        CHANNELS 3 Zrotation Xrotation Yrotation
        JOINT lFoot
        {
          OFFSET -0.73152 -45.1104 -5.12064
          CHANNELS 3 Zrotation Xrotation Yrotation
          End Site
          {
            OFFSET 1.1221 -3.69964 12.103
          }
        }
      }
    }
  }
}
MOTION
Frames:	4
Frame Time:	0.00833333
1.1320554 64.66618 -1.5454282 -4.7377896 -5.2674537 2.7013206 0.87649107 10.653156 -5.8221493 4.554802 -9.162684 -1.4022648 -0.7307427 9.739666 3.1878994 0.22488678 -16.875145 6.3433776 -0.029438756 -0.027248543 -0.012236809 0.077984065 -0.016682213 0.015320772 -0.026642606 -0.009047275 0.010344432 102.65146 41.38051 -48.043045 -27.045881 -40.598297 85.69545 -5.6166983 -52.507847 -9.412677 0.039648455 -0.088478476 0.025584392 0.020867486 -0.02070951 -0.052745443 0.067740284 0.02942239 -0.02313376 7.775962 5.523314 0.46902 0.0068547763 -0.0052428525 0.01351379 2.8499966 0.95634663 0.1533369 -0.05150462 -0.034095064 -0.0078397505 10.320146 0.7119817 0.059253592 0.04612277 -0.039520994 -0.018270845 2.241927 -0.75764394 -0.18063758 -0.037173815 -0.06398462 0.019533217 -56.79331 0.75526327 -74.06954 8.010472 -3.6867356 -14.764642 5.9578304 55.154587 -11.740628 -0.04760494 -0.056953114 0.018252974 -0.10106397 -0.00967948 0.00030007708 -0.021608023 -0.048599895 -0.060075313 -7.7818604 5.429471 -0.41738412 0.02674315 -0.06784341 -0.07624698 -2.9090855 0.92473286 -0.060793586 -0.0021905527 -0.050979845 -0.01713279 -10.385166 0.7335885 0.06527202 -0.035772692 -0.06452488 -0.060340308 -2.2249901 -0.76177526 0.19907273 0.0052818963 0.07094646 -0.0679537 -25.401922 -48.39047 -21.87328 -9.856144 83.884155 9.424917 -6.920855 -26.364376 -9.9852295 -0.080497175 -0.021944292 0.032892026 37.743958 -46.454273 23.425934 6.8589125 82.80104 -9.217483 2.8979263 -31.667267 3.5471413
1.1559685 64.803474 -1.3810134 -4.922823 -4.6347423 2.9771974 0.94554967 10.755024 -6.0009465 4.5938115 -9.370004 -1.4375412 -0.8647367 9.597381 2.9995885 0.03883899 -17.109947 6.193639 -0.040933188 -0.051520813 -0.008583392 0.09745559 -0.011383455 0.017693024 -0.028760869 -0.045785468 -0.013881563 101.30664 41.872032 -46.407772 -26.734255 -41.989902 88.45829 -3.879008 -46.40228 -6.770753 0.021482425 -0.07037036 0.03354494 0.023721702 -0.022300614 -0.057787072 0.062789984 0.02211792 -0.015885975 7.77377 5.5573573 0.4895921 0.0054058093 -0.022287363 -0.019240232 2.8647485 0.99640954 0.16669624 -0.023994984 -0.0385867 -0.0066528814 10.335836 0.718187 0.043817 0.041471284 -0.022899099 0.005933728 2.2626827 -0.73846436 -0.17684583 -0.06761199 -0.045242686 -0.02027554 -57.09473 0.69278926 -74.57401 7.497057 -3.1961331 -13.435334 6.8302517 58.5771 -13.27655 -0.031283263 -0.034251932 0.02006579 -0.083822794 0.0014472515 0.033236485 -0.035113476 -0.044327777 -0.06549953 -7.7716002 5.4310775 -0.3913244 0.04516717 -0.035604775 -0.052928712 -2.8887572 0.93401146 -0.07053283 0.008150798 -0.02709751 -0.036096696 -10.404007 0.7403589 0.055993065 -0.02789011 -0.0086322725 -0.04848623 -2.2474978 -0.7468422 0.19706136 0.03199822 0.09357498 -0.04143313 -26.241945 -48.09768 -22.987383 -9.258639 84.07789 9.423073 -6.9740596 -26.360083 -10.229689 -0.10167811 -0.026517497 0.037458785 37.376194 -47.29362 22.39589 7.0266595 82.76025 -9.077818 3.0308092 -31.531633 3.8223891
1.1904398 64.83849 -1.375339 -5.096358 -4.073302 3.1732934 0.79098034 10.86386 -5.9776716 4.641293 -9.458526 -1.4194933 -1.0167422 9.520428 2.6330023 0.11222905 -17.092733 5.640572 -0.040515225 -0.04996214 0.02072221 0.11859422 -0.0056853155 0.025448326 -0.027414646 -0.055181842 -0.031398445 98.31328 43.36572 -42.69204 -25.906841 -44.8733 94.23283 -2.0129862 -39.251778 -4.7818027 0.0116268955 -0.063380316 0.055313747 0.028151415 -0.052113645 -0.065646626 0.055168476 -0.0074837045 -0.03159797 7.764477 5.5750694 0.49237427 -0.001242718 -0.033675224 -0.044198688 2.880327 1.0227978 0.1424277 -0.020638635 -0.053517047 -0.020458993 10.354117 0.74217814 0.038009454 0.06687673 -0.014433624 0.015030539 2.2616608 -0.7071837 -0.17706077 -0.092507504 -0.025298124 -0.04747186 -57.043564 1.1720209 -75.411674 7.0232196 -2.730202 -12.196154 7.9514685 61.840473 -15.348485 -0.016486999 -0.023868643 0.02547547 -0.07762734 0.013617256 0.05087807 -0.026557285 -0.04076961 -0.07754046 -7.7485967 5.442599 -0.37475213 0.05730988 -0.019132458 -0.045022875 -2.8920848 0.9422302 -0.09149074 0.037439313 -0.0082013775 -0.044893578 -10.402758 0.7624838 0.034439333 -0.0047989925 0.03694061 -0.055217244 -2.2675207 -0.74303806 0.20588456 0.052484557 0.10946982 -0.034508914 -26.718042 -48.087082 -23.878242 -7.904476 83.81796 9.854923 -6.9324965 -26.197384 -10.371318 -0.09644404 -0.031563062 0.043835748 36.16864 -48.35733 20.809929 7.024881 82.49413 -8.438352 3.2168982 -31.188398 3.894832
1.14883 65.06376 -1.4743423 -5.0588098 -3.4214292 3.2119014 0.54153913 10.98006 -5.6626306 4.6376877 -9.673336 -1.2944702 -1.355193 9.514607 2.0630953 0.67963964 -17.08605 4.661699 -0.041110724 -0.038015053 0.0656504 0.13628791 -0.005077642 0.035221823 -0.029912734 -0.05806335 -0.0393417 93.65016 45.80192 -35.368416 -24.50565 -48.63089 101.911934 -0.76623994 -32.017673 -3.6701381 -0.0036607727 -0.06800911 0.07498926 0.030635858 -0.08490833 -0.07191026 0.03961291 -0.04163743 -0.05682433 7.756252 5.57533 0.49007764 0.0029173605 -0.04300269 -0.052404787 2.901099 1.0493544 0.11807168 -0.03391256 -0.07607511 -0.03681562 10.368189 0.76476526 0.025090909 0.102503166 -0.006013098 0.022008732 2.2443888 -0.6839122 -0.17841533 -0.11130334 -0.002525886 -0.055630814 -55.85056 2.3417592 -76.726135 6.6231666 -2.34608 -11.408995 8.8769655 64.84599 -17.469044 0.002215492 -0.021251831 0.01563354 -0.07869701 0.028492816 0.045101438 -0.018182738 -0.040386178 -0.09699921 -7.7350397 5.447997 -0.3724131 0.07458275 -0.012383868 -0.053583656 -2.9077644 0.9441532 -0.10588131 0.071565434 0.023520643 -0.048059184 -10.388189 0.7863235 0.02105911 0.02054576 0.069655515 -0.0740801 -2.279631 -0.75890857 0.2191287 0.06332085 0.10694027 -0.03701092 -27.143488 -47.884796 -24.380236 -6.665879 83.209206 9.559371 -6.925544 -25.946377 -10.243207 -0.08721665 -0.044546627 0.04404621 34.482674 -49.306515 19.061903 6.619938 81.823204 -7.513222 3.3986466 -30.62747 4.1472797
